<svg height="512pt" viewBox="0 0 512 512" width="512pt" xmlns="http://www.w3.org/2000/svg"><path d="m512 256c0 141.386719-114.613281 256-256 256s-256-114.613281-256-256 114.613281-256 256-256 256 114.613281 256 256zm0 0" fill="#2fc0f0"/><path d="m400.976562 134.109375-25.675781-25.675781-34.308593 34.308594-33.148438-33.144532-34.308594 34.308594-35.78125-35.785156-34.355468 34.359375-33.773438-33.777344-47.597656 47.597656 171.992187 171.992188-87.660156 87.660156 92.460937 92.460937c120.996094-20.378906 213.179688-125.621093 213.179688-252.414062 0-5.765625-.210938-11.480469-.585938-17.148438l-107.589843-107.589843zm0 0" fill="#0d91bd"/><path d="m388.707031 131.261719c-.980469-.785157-2.941406-4.90625-3.925781-7.457031-3.53125-8.238282-9.417969-21.972657-26.289062-21.972657-15.894532 0-21.976563 12.164063-25.898438 20.207031-3.925781 7.847657-5.300781 9.222657-8.4375 9.222657-3.140625 0-4.511719-1.375-8.4375-9.222657-3.925781-8.042968-10.007812-20.207031-25.898438-20.207031-15.894531 0-21.976562 12.164063-25.898437 20.207031-3.925781 7.847657-5.300781 9.222657-8.4375 9.222657-3.140625 0-4.511719-1.375-8.4375-9.222657-3.925781-8.042968-10.007813-20.207031-25.898437-20.207031-15.894532 0-21.976563 12.164063-25.902344 20.207031-3.921875 7.847657-5.296875 9.222657-8.433594 9.222657-3.140625 0-4.511719-1.375-8.4375-9.222657-3.925781-8.042968-10.007812-20.207031-25.898438-20.207031-16.875 0-22.761718 13.734375-26.292968 21.777344-.980469 2.550781-2.941406 6.867187-4.121094 7.652344h-15.105469l79.855469 187.699219 17.460938 19.621093h107.714843l12.164063-19.621093 79.65625-187.699219zm0 0" fill="#ede9e8"/><path d="m403.8125 131.261719-79.65625 187.703125-12.164062 19.617187h-56.507813v-207.320312c3.140625 0 4.511719-1.375 8.4375-9.222657 3.925781-8.042968 10.007813-20.207031 25.898437-20.207031 15.894532 0 21.976563 12.164063 25.902344 20.207031 3.921875 7.851563 5.296875 9.222657 8.433594 9.222657 3.140625 0 4.515625-1.375 8.4375-9.222657 3.925781-8.042968 10.007812-20.207031 25.898438-20.207031 16.875 0 22.761718 13.734375 26.292968 21.976563.980469 2.550781 2.941406 6.667968 3.925782 7.453125zm0 0" fill="#dfd7d5"/><path d="m245.675781 190.121094h19.621094v138.652344h-19.621094zm0 0" fill="#babac0"/><path d="m216.492188 330.976562-29.429688-138.648437 19.121094-4.40625 29.429687 138.648437zm0 0" fill="#babac0"/><path d="m294.476562 330.976562-19.121093-4.40625 29.429687-138.648437 19.121094 4.40625zm0 0" fill="#a1a1a7"/><path d="m255.484375 190.121094h9.8125v138.652344h-9.8125zm0 0" fill="#a1a1a7"/><path d="m324.15625 318.964844v39.238281l-42.378906 19.621094h-74.558594l-20.40625-19.621094v-39.238281zm0 0" fill="#ff7816"/><path d="m324.15625 318.964844v39.238281l-42.378906 19.621094h-26.292969v-58.859375zm0 0" fill="#ff4b00"/><path d="m186.8125 358.203125v9.808594c0 37.867187 30.804688 68.671875 68.671875 68.671875s68.671875-30.804688 68.671875-68.671875v-9.808594zm0 0" fill="#d3d3d8"/><path d="m324.15625 358.203125v9.808594c0 37.867187-30.804688 68.671875-68.671875 68.671875v-78.480469zm0 0" fill="#babac0"/></svg>